<svg width="40" height="40" viewBox="0 0 40 40" fill="none" xmlns="http://www.w3.org/2000/svg">
<circle cx="20" cy="20" r="19.5" stroke="black"/>
<path fill-rule="evenodd" clip-rule="evenodd" d="M19.6483 27.8572C19.8435 28.0525 20.1601 28.0525 20.3554 27.8572C20.5506 27.662 20.5506 27.3454 20.3554 27.1501L13.7071 20.5018L27.5037 20.5018C27.7798 20.5018 28.0037 20.278 28.0037 20.0018C28.0037 19.7257 27.7798 19.5018 27.5037 19.5018L13.7071 19.5018L20.3554 12.8536C20.5506 12.6583 20.5506 12.3417 20.3554 12.1464C20.1601 11.9512 19.8435 11.9512 19.6483 12.1464L12.1464 19.6483C12.097 19.6977 12.06 19.755 12.0356 19.8161C12.0179 19.8605 12.0068 19.9069 12.0023 19.9539C12.0008 19.9698 12 19.9858 12 20.0018C12 20.0018 12 20.0018 12 20.0018C12 20.0194 12.0009 20.037 12.0028 20.0545C12.0073 20.0979 12.0175 20.1407 12.0334 20.1819C12.0578 20.2451 12.0954 20.3044 12.1464 20.3554L19.6483 27.8572Z" fill="black"/>
</svg>
