<svg width="40" height="40" viewBox="0 0 40 40" fill="none" xmlns="http://www.w3.org/2000/svg">
<circle cx="20" cy="20" r="19.5" stroke="black"/>
<path fill-rule="evenodd" clip-rule="evenodd" d="M20.3554 12.1464C20.1601 11.9512 19.8435 11.9512 19.6483 12.1464C19.453 12.3417 19.453 12.6583 19.6483 12.8536L26.2966 19.5018H12.5C12.2239 19.5018 12 19.7257 12 20.0018C12 20.278 12.2239 20.5018 12.5 20.5018H26.2966L19.6483 27.1501C19.453 27.3454 19.453 27.662 19.6483 27.8572C19.8435 28.0525 20.1601 28.0525 20.3554 27.8572L27.8572 20.3554C27.9067 20.3059 27.9436 20.2487 27.968 20.1876C27.9877 20.1383 27.9999 20.0852 28.0029 20.0297C28.0034 20.0204 28.0037 20.0111 28.0037 20.0018C28.0037 19.9874 28.0031 19.973 28.0018 19.9587C27.9978 19.9121 27.9873 19.866 27.9703 19.8218C27.9459 19.7585 27.9082 19.6993 27.8572 19.6483L20.3554 12.1464Z" fill="black"/>
</svg>
